<svg xmlns="http://www.w3.org/2000/svg" xmlns:xlink="http://www.w3.org/1999/xlink" version="1.1" x="0px" y="0px" viewBox="0 0 32 32" enable-background="new 0 0 32 32" xml:space="preserve"><g display="none"><g display="inline"><path fill="#000000" stroke="#1A1718" stroke-miterlimit="10" d="M14.826,9.111L5.694,16l9.132,6.889V9.111z"></path><line fill="#000000" stroke="#1A1718" stroke-miterlimit="10" x1="14.826" y1="16" x2="32" y2="16"></line><polyline fill="#000000" stroke="#1A1718" stroke-miterlimit="10" points="7.183,27.737 0.5,27.737 0.5,4.263 7.183,4.263   "></polyline></g></g><g><path d="M4.449,16l11.649,8.774V17H32v-2H16.099V7.226L4.449,16z M14.099,20.765L7.773,16l6.325-4.765V20.765z"></path><polygon points="0,28.534 7.577,28.534 7.577,26.534 2,26.534 2,5.466 7.577,5.466 7.577,3.466 0,3.466  "></polygon></g><g display="none"><path display="inline" d="M15.212,15.71c0-2.154,0-4.309,0-6.463c0.007-0.062-0.003-0.119-0.036-0.171   c-0.136-0.36-0.759-0.332-1.022-0.051c-2.957,2.229-5.914,4.458-8.87,6.687c-0.207,0.156-0.283,0.463-0.052,0.637   c2.983,2.248,5.965,4.497,8.948,6.745c0.293,0.221,1.032,0.059,1.032-0.385c0-2.14,0-4.279,0-6.419c5.334,0,10.669,0,16.003,0   c0.386,0,1.247-0.579,0.472-0.579C26.195,15.71,20.704,15.71,15.212,15.71z M14.034,21.619c-2.506-1.89-5.013-3.779-7.519-5.669   c2.506-1.889,5.013-3.779,7.519-5.668C14.034,14.061,14.034,17.84,14.034,21.619z"></path><path display="inline" d="M7.192,27.094c-1.626,0-3.355-0.181-4.967,0c-1.675,0.188-1.028,0.596-1.055-0.742   c-0.069-3.465,0-6.938,0-10.403c0-3.464,0.093-6.941,0-10.403C1.158,5.071,1.075,4.85,1.012,4.748   C1.104,4.815,1.302,4.9,1.722,4.906c1.783,0.027,3.569,0,5.353,0c0.643,0,0.906-0.797,0.117-0.797c-2.183,0-4.365,0-6.548,0   C0.431,4.109,0,4.297,0,4.559c0,7.661,0,15.323,0,22.985c0,0.295,0.285,0.347,0.527,0.347c2.183,0,4.365,0,6.548,0   C7.718,27.891,7.981,27.094,7.192,27.094z"></path></g><g display="none"><g display="inline"><path fill="#000000" stroke="#1A1718" stroke-width="0.5" stroke-miterlimit="10" d="M14.826,9.111L5.694,16l9.132,6.889V9.111z"></path><line fill="#000000" stroke="#1A1718" stroke-width="0.5" stroke-miterlimit="10" x1="14.826" y1="16" x2="32" y2="16"></line><polyline fill="#000000" stroke="#1A1718" stroke-width="0.5" stroke-miterlimit="10" points="7.183,27.737 0.5,27.737 0.5,4.263     7.183,4.263   "></polyline></g></g></svg>